<?xml version="1.0" encoding="UTF-8"?>
<svg version="1.1" xmlns="http://www.w3.org/2000/svg" width="167" height="40">
<path d="M0 0 C2.97 0 5.94 0 9 0 C9.33 1.98 9.66 3.96 10 6 C10.33 4.02 10.66 2.04 11 0 C18 0 25 0 32 0 C32.804375 -0.061875 33.60875 -0.12375 34.4375 -0.1875 C37 0 37 0 38.8125 1.5 C39.4003125 2.2425 39.4003125 2.2425 40 3 C40.61875 2.2575 40.61875 2.2575 41.25 1.5 C43 0 43 0 47 0 C47.495 3.465 47.495 3.465 48 7 C49.32 4.69 50.64 2.38 52 0 C53.8125 0.125 53.8125 0.125 56 1 C57.75 4.0625 57.75 4.0625 59 7 C59.33 4.69 59.66 2.38 60 0 C61.45742463 -0.08096803 62.91612807 -0.13917774 64.375 -0.1875 C65.59316406 -0.23970703 65.59316406 -0.23970703 66.8359375 -0.29296875 C67.55007812 -0.19628906 68.26421875 -0.09960938 69 0 C69.99 1.485 69.99 1.485 71 3 C71.66 2.01 72.32 1.02 73 0 C73.99 0 74.98 0 76 0 C76 4.29 76 8.58 76 13 C74.68 13 73.36 13 72 13 C71.01 11.515 71.01 11.515 70 10 C69.67 10.99 69.34 11.98 69 13 C64.71 13 60.42 13 56 13 C56 12.34 56 11.68 56 11 C54.35 11 52.7 11 51 11 C51 11.66 51 12.32 51 13 C48.36 13 45.72 13 43 13 C42.505 11.02 42.505 11.02 42 9 C40.05925139 9.27617533 40.05925139 9.27617533 38 10 C37.34 10.99 36.68 11.98 36 13 C34.0546875 13.29296875 34.0546875 13.29296875 31.875 13.1875 C30.59625 13.125625 29.3175 13.06375 28 13 C28 12.01 28 11.02 28 10 C27.34 10 26.68 10 26 10 C26 10.99 26 11.98 26 13 C17.33333333 13 8.66666667 13 0 13 C0 8.71 0 4.42 0 0 Z M4 3 C4 3.66 4 4.32 4 5 C4.66 5 5.32 5 6 5 C6 4.34 6 3.68 6 3 C5.34 3 4.68 3 4 3 Z M18 5 C18.66 5 19.32 5 20 5 C20 5.99 20 6.98 20 8 C19.01 8.495 19.01 8.495 18 9 C19.32 9.33 20.64 9.66 22 10 C22 7.69 22 5.38 22 3 C20.53774984 2.90754997 20.53774984 2.90754997 18 5 Z M26 4 C26.33 4.66 26.66 5.32 27 6 C27.33 5.34 27.66 4.68 28 4 C27.34 4 26.68 4 26 4 Z M4 8 C4 8.66 4 9.32 4 10 C4.66 10 5.32 10 6 10 C6 9.34 6 8.68 6 8 C5.34 8 4.68 8 4 8 Z " fill="#037A5E" transform="translate(91,14)"/>
<path d="M0 0 C2.64 0 5.28 0 8 0 C8 1.65 8 3.3 8 5 C8.515625 4.175 9.03125 3.35 9.5625 2.5 C12 0 12 0 15.625 -0.4375 C19 0 19 0 21 2 C21.33 1.34 21.66 0.68 22 0 C24.97 0 27.94 0 31 0 C31.12375 0.78375 31.2475 1.5675 31.375 2.375 C31.79117993 5.14057822 31.79117993 5.14057822 34 7 C35.32 4.69 36.64 2.38 38 0 C43.94 0 49.88 0 56 0 C56 0.99 56 1.98 56 3 C54.35 3.33 52.7 3.66 51 4 C51 6.97 51 9.94 51 13 C49.68 13 48.36 13 47 13 C47 10.03 47 7.06 47 4 C46.01 4.33 45.02 4.66 44 5 C44.495 5.86625 44.495 5.86625 45 6.75 C46 9 46 9 46 13 C44.68 13 43.36 13 42 13 C42 12.34 42 11.68 42 11 C40.35 11 38.7 11 37 11 C37 11.66 37 12.32 37 13 C32.05 13 27.1 13 22 13 C21.67 12.34 21.34 11.68 21 11 C20.34 11.66 19.68 12.32 19 13 C14.66356399 13.31537716 12.67346771 13.44897847 9 11 C8.34 11.66 7.68 12.32 7 13 C3.375 13.125 3.375 13.125 0 13 C-1.00699515 8.21677303 -0.83990451 4.82945095 0 0 Z M26 3 C26 3.66 26 4.32 26 5 C26.66 5 27.32 5 28 5 C28 4.34 28 3.68 28 3 C27.34 3 26.68 3 26 3 Z M14 4 C13.67 5.32 13.34 6.64 13 8 C14.32 8.33 15.64 8.66 17 9 C17.33 7.68 17.66 6.36 18 5 C16.68 4.67 15.36 4.34 14 4 Z M26 8 C26 8.66 26 9.32 26 10 C26.99 9.67 27.98 9.34 29 9 C28.01 8.67 27.02 8.34 26 8 Z " fill="#038060" transform="translate(31,14)"/>
<path d="M0 0 C3.83135436 4.06355766 4.52376395 7.47729536 4.37109375 12.9375 C3.87276209 16.57090553 2.53437713 18.52547847 0.0625 21.1875 C-4.40907068 23.85324406 -7.95316441 24.71506492 -13.0078125 23.83984375 C-16.90390775 22.52274272 -20.08462662 19.89324676 -21.9375 16.1875 C-22.5255376 11.04637123 -23.11203731 5.87233868 -19.75 1.625 C-13.67931901 -3.63625686 -6.94527226 -4.28538075 0 0 Z M-8.9375 6.1875 C-8.2775 6.8475 -7.6175 7.5075 -6.9375 8.1875 C-6.9375 7.5275 -6.9375 6.8675 -6.9375 6.1875 C-7.5975 6.1875 -8.2575 6.1875 -8.9375 6.1875 Z M-15.9375 9.1875 C-14.9375 11.1875 -14.9375 11.1875 -14.9375 11.1875 Z M-7.9375 9.1875 C-7.9375 10.8375 -7.9375 12.4875 -7.9375 14.1875 C-6.2875 14.1875 -4.6375 14.1875 -2.9375 14.1875 C-2.9375 12.8675 -2.9375 11.5475 -2.9375 10.1875 C-4.5875 9.8575 -6.2375 9.5275 -7.9375 9.1875 Z M-14.9375 11.1875 C-14.6075 11.8475 -14.2775 12.5075 -13.9375 13.1875 C-12.9475 12.8575 -11.9575 12.5275 -10.9375 12.1875 C-12.2575 11.8575 -13.5775 11.5275 -14.9375 11.1875 Z M-10.9375 13.1875 C-9.9375 15.1875 -9.9375 15.1875 -9.9375 15.1875 Z M-14.9375 15.1875 C-13.4525 16.1775 -13.4525 16.1775 -11.9375 17.1875 C-11.6075 16.5275 -11.2775 15.8675 -10.9375 15.1875 C-12.2575 15.1875 -13.5775 15.1875 -14.9375 15.1875 Z " fill="#048163" transform="translate(21.9375,9.8125)"/>
<path d="M0 0 C1.27875 -0.061875 2.5575 -0.12375 3.875 -0.1875 C4.95394531 -0.23970703 4.95394531 -0.23970703 6.0546875 -0.29296875 C6.69664062 -0.19628906 7.33859375 -0.09960938 8 0 C8.66 0.99 9.32 1.98 10 3 C10.66 2.01 11.32 1.02 12 0 C12.99 0 13.98 0 15 0 C15 4.29 15 8.58 15 13 C13.68 13 12.36 13 11 13 C10.34 12.01 9.68 11.02 9 10 C8.67 10.99 8.34 11.98 8 13 C5.36 13 2.72 13 0 13 C0 8.71 0 4.42 0 0 Z " fill="#038264" transform="translate(152,14)"/>
<path d="M0 0 C2.31 0.66 4.62 1.32 7 2 C6.67 3.32 6.34 4.64 6 6 C4.02 5.01 2.04 4.02 0 3 C0 2.01 0 1.02 0 0 Z " fill="#02614B" transform="translate(7,18)"/>
<path d="M0 0 C0.99 0 1.98 0 3 0 C3 0.99 3 1.98 3 3 C2.01 3 1.02 3 0 3 C0 2.01 0 1.02 0 0 Z " fill="#026C55" transform="translate(15,20)"/>
</svg>
