<?xml version="1.0" encoding="UTF-8"?>
<svg version="1.1" xmlns="http://www.w3.org/2000/svg" width="167" height="40">
<path d="M0 0 C2.97 0 5.94 0 9 0 C9.33 2.31 9.66 4.62 10 7 C10.33 4.69 10.66 2.38 11 0 C36.13043478 0 36.13043478 0 41 4 C41.66 2.68 42.32 1.36 43 0 C44.32 0 45.64 0 47 0 C47.495 3.465 47.495 3.465 48 7 C49.32 4.69 50.64 2.38 52 0 C53.8125 0.125 53.8125 0.125 56 1 C57.75 4.0625 57.75 4.0625 59 7 C59.33 4.69 59.66 2.38 60 0 C67.50769231 -0.36923077 67.50769231 -0.36923077 70 1.5 C70.495 2.2425 70.495 2.2425 71 3 C71.66 2.01 72.32 1.02 73 0 C73.99 0 74.98 0 76 0 C76 4.29 76 8.58 76 13 C75.34 13.33 74.68 13.66 74 14 C72.68 12.68 71.36 11.36 70 10 C69.67 10.99 69.34 11.98 69 13 C64.93631321 13.77403558 61.13574827 14.0984702 57 14 C56.505 12.515 56.505 12.515 56 11 C54.35 11 52.7 11 51 11 C50.67 11.99 50.34 12.98 50 14 C48.02 14 46.04 14 44 14 C43.34 12.68 42.68 11.36 42 10 C40.68 10 39.36 10 38 10 C37.67 10.99 37.34 11.98 37 13 C31.375 14.125 31.375 14.125 28 13 C28 12.01 28 11.02 28 10 C27.34 10 26.68 10 26 10 C26 10.99 26 11.98 26 13 C21.2250791 13.95498418 16.84860624 14.24243031 12 14 C11.34 13.34 10.68 12.68 10 12 C9.01 12.66 8.02 13.32 7 14 C3.875 14.1875 3.875 14.1875 1 14 C0 13 0 13 -0.09765625 10.05859375 C-0.08605469 8.86363281 -0.07445313 7.66867188 -0.0625 6.4375 C-0.05347656 5.23996094 -0.04445313 4.04242188 -0.03515625 2.80859375 C-0.02355469 1.88175781 -0.01195313 0.95492188 0 0 Z M4 3 C4 3.66 4 4.32 4 5 C4.66 4.67 5.32 4.34 6 4 C5.34 3.67 4.68 3.34 4 3 Z M17 4 C17.99 4.33 18.98 4.66 20 5 C19.67 6.32 19.34 7.64 19 9 C19.99 9.33 20.98 9.66 22 10 C22 8.02 22 6.04 22 4 C20.35 4 18.7 4 17 4 Z M26 4 C26 4.66 26 5.32 26 6 C26.66 6 27.32 6 28 6 C28 5.34 28 4.68 28 4 C27.34 4 26.68 4 26 4 Z M4 8 C4 8.66 4 9.32 4 10 C4.66 10 5.32 10 6 10 C6 9.34 6 8.68 6 8 C5.34 8 4.68 8 4 8 Z " fill="#EFEFEF" transform="translate(91,13)"/>
<path d="M0 0 C1.4540625 0.0309375 1.4540625 0.0309375 2.9375 0.0625 C3.2675 1.7125 3.5975 3.3625 3.9375 5.0625 C4.453125 4.2375 4.96875 3.4125 5.5 2.5625 C7.9375 0.0625 7.9375 0.0625 11.5625 -0.375 C14.9375 0.0625 14.9375 0.0625 16.9375 2.0625 C17.2675 1.4025 17.5975 0.7425 17.9375 0.0625 C20.9075 0.0625 23.8775 0.0625 26.9375 0.0625 C28.0625 4.8125 28.0625 4.8125 26.9375 7.0625 C27.9275 7.0625 28.9175 7.0625 29.9375 7.0625 C31.2575 4.7525 32.5775 2.4425 33.9375 0.0625 C39.8775 0.0625 45.8175 0.0625 51.9375 0.0625 C51.6075 1.3825 51.2775 2.7025 50.9375 4.0625 C49.6175 4.0625 48.2975 4.0625 46.9375 4.0625 C46.9375 7.0325 46.9375 10.0025 46.9375 13.0625 C45.6175 13.0625 44.2975 13.0625 42.9375 13.0625 C42.9375 10.0925 42.9375 7.1225 42.9375 4.0625 C41.9475 4.3925 40.9575 4.7225 39.9375 5.0625 C40.288125 5.619375 40.63875 6.17625 41 6.75 C42.15595993 9.60136783 41.74717438 11.14767222 40.9375 14.0625 C39.9475 13.7325 38.9575 13.4025 37.9375 13.0625 C37.9375 12.4025 37.9375 11.7425 37.9375 11.0625 C36.2875 11.0625 34.6375 11.0625 32.9375 11.0625 C32.6075 12.0525 32.2775 13.0425 31.9375 14.0625 C31.009375 13.7840625 31.009375 13.7840625 30.0625 13.5 C27.89589822 12.82563824 27.89589822 12.82563824 25.9375 14.0625 C22.4375 14.25 22.4375 14.25 18.9375 14.0625 C18.2775 13.4025 17.6175 12.7425 16.9375 12.0625 C16.40125 12.413125 15.865 12.76375 15.3125 13.125 C12.15359755 14.37193518 10.18431029 13.90949399 6.9375 13.0625 C6.2775 12.4025 5.6175 11.7425 4.9375 11.0625 C4.56625 11.578125 4.195 12.09375 3.8125 12.625 C1.9375 14.0625 1.9375 14.0625 -1.25 13.75 C-2.178125 13.523125 -3.10625 13.29625 -4.0625 13.0625 C-5.0009979 8.60463498 -5.0905811 5.51751812 -4.0625 1.0625 C-3.0625 0.0625 -3.0625 0.0625 0 0 Z M21.9375 3.0625 C21.9375 3.7225 21.9375 4.3825 21.9375 5.0625 C22.5975 5.0625 23.2575 5.0625 23.9375 5.0625 C23.9375 4.4025 23.9375 3.7425 23.9375 3.0625 C23.2775 3.0625 22.6175 3.0625 21.9375 3.0625 Z M9.9375 4.0625 C9.6075 5.3825 9.2775 6.7025 8.9375 8.0625 C10.2575 8.3925 11.5775 8.7225 12.9375 9.0625 C13.2675 7.7425 13.5975 6.4225 13.9375 5.0625 C12.6175 4.7325 11.2975 4.4025 9.9375 4.0625 Z M21.9375 8.0625 C21.9375 8.7225 21.9375 9.3825 21.9375 10.0625 C22.9275 9.7325 23.9175 9.4025 24.9375 9.0625 C23.9475 8.7325 22.9575 8.4025 21.9375 8.0625 Z " fill="#F0F0F0" transform="translate(35.0625,12.9375)"/>
<path d="M0 0 C3.29430818 2.66348321 6.62310878 5.69921057 7.3359375 10.05078125 C7.43078993 15.54273672 6.77094222 18.71947099 3 23 C-0.49131603 25.90943003 -3.46075939 26.4824812 -8.0078125 26.28515625 C-12.20322477 25.68463645 -15.00747219 24.05869633 -17.875 21 C-19.62618637 16.33016969 -19.77132279 11.91628169 -19 7 C-17.35248464 3.5693713 -14.95278459 1.60872349 -11.75 -0.4375 C-7.67087394 -1.27186669 -4.01361819 -1.14362624 0 0 Z M-6 8 C-5.34 8.66 -4.68 9.32 -4 10 C-4 9.34 -4 8.68 -4 8 C-4.66 8 -5.32 8 -6 8 Z M-13 11 C-12.67 11.66 -12.34 12.32 -12 13 C-11.67 12.34 -11.34 11.68 -11 11 C-11.66 11 -12.32 11 -13 11 Z M-5 11 C-5 12.65 -5 14.3 -5 16 C-3.35 16 -1.7 16 0 16 C0 14.68 0 13.36 0 12 C-1.65 11.67 -3.3 11.34 -5 11 Z M-12 13 C-11.67 13.66 -11.34 14.32 -11 15 C-10.01 14.67 -9.02 14.34 -8 14 C-9.32 13.67 -10.64 13.34 -12 13 Z M-8 15 C-7 17 -7 17 -7 17 Z " fill="#F5F5F5" transform="translate(19,7)"/>
<path d="M0 0 C4.29 0 8.58 0 13 0 C12.67 1.32 12.34 2.64 12 4 C10.68 4 9.36 4 8 4 C8 6.97 8 9.94 8 13 C6.68 13 5.36 13 4 13 C4 10.03 4 7.06 4 4 C2.68 3.67 1.36 3.34 0 3 C0 2.01 0 1.02 0 0 Z " fill="#F7F7F7" transform="translate(74,13)"/>
<path d="M0 0 C0.99 0 1.98 0 3 0 C3 0.66 3 1.32 3 2 C2.01 2 1.02 2 0 2 C0 1.34 0 0.68 0 0 Z " fill="#F3F3F3" transform="translate(15,20)"/>
</svg>
